<?xml version="1.0"?>
<svg xmlns="http://www.w3.org/2000/svg" xmlns:xlink="http://www.w3.org/1999/xlink" version="1.1" id="Layer_1" x="0px" y="0px" viewBox="0 0 496 496" style="enable-background:new 0 0 496 496;" xml:space="preserve" width="512px" height="512px"><g><g>
	<g>
		<path d="M383.991,64c-5.856,0-11.272,1.696-16,4.448V56c0-17.648-14.352-32-32-32c-5.992,0-11.544,1.76-16.344,4.632    C317.943,12.584,304.487,0,287.991,0c-16.496,0-29.952,12.584-31.656,28.632C251.535,25.76,245.983,24,239.991,24    c-17.648,0-32,14.352-32,32l0.024,183.176c0,9.272-7.544,16.824-17.248,16.824c-6.352,0-12.008-3.24-15.128-8.68l-36.168-63.088    c-4.272-7.552-11.192-12.936-19.488-15.16c-8.232-2.216-16.792-1.032-24.128,3.296c-14.912,8.792-20.192,28.128-11.984,43.416    l33.84,95.488c17.576,49.56,48.76,92.584,90.28,124.688V496h84h4h88v-61.6c20.944-32.256,32-69.568,32-108.088V96    C415.991,78.352,401.639,64,383.991,64z M369.335,427.56l-1.344,2.016V480h-32.888c10.408-10.176,16.888-24.336,16.888-40    c0-8.888-2.136-17.264-5.84-24.736c5.728,5.376,13.376,8.736,21.84,8.736c1.288,0,2.52-0.232,3.768-0.384    C370.935,424.928,370.191,426.272,369.335,427.56z M367.991,408c-8.824,0-16-7.176-16-16h-16c0,3.968,0.816,7.736,2.144,11.248    c-4.96-5.68-11.04-10.336-17.904-13.648c1.256-16.512,14.936-29.6,31.76-29.6c17.648,0,32,14.352,32,32    C383.991,400.824,376.815,408,367.991,408z M383.991,336c5.776,0,11.12-1.656,15.808-4.344    c-0.376,13.016-2.112,25.856-5.192,38.344c-7.992-15.416-24.08-26-42.616-26c-23.992,0-43.872,17.712-47.392,40.736    c-2.816-0.44-5.672-0.736-8.608-0.736h-8v16h8c22.056,0,40,17.944,40,40c0,22.056-17.944,40-40,40h-4c-11.032,0-20-8.968-20-20    c0-11.032,8.968-20,20-20c6.616,0,12,5.384,12,12v4h16v-4c0-15.44-12.56-28-28-28c-19.848,0-36,16.152-36,36    c0,7.4,2.256,14.272,6.096,20h-38.096v-44.2c12.24-9.912,21.928-22.144,28.72-35.8h19.28v-16h-12.96    c3.168-10.232,4.96-20.968,4.96-32c0-9.632-2.88-18.6-7.784-26.12c1.128-21.056,18.456-37.88,39.784-37.88    c13.232,0,24,10.768,24,24s-10.768,24-24,24c-8.824,0-16-7.176-16-16v-8h-16v8c0,17.648,14.352,32,32,32c22.056,0,40-17.944,40-40    v-8c0-17.648,14.352-32,32-32s32,14.352,32,32c0,8.824-7.176,16-16,16c-8.824,0-16-7.176-16-16h-16    C351.991,321.648,366.343,336,383.991,336z M263.991,264v12c0,6.616-5.384,12-12,12c-6.616,0-12-5.384-12-12v-4    c0-17.648,14.352-32,32-32s32,14.352,32,32c0,0.272-0.032,0.536-0.032,0.808c-2.576-0.528-5.24-0.808-7.968-0.808    c-5.56,0-10.928,0.84-16,2.36V264H263.991z M399.991,268.32c-8.504-7.632-19.696-12.32-32-12.32    c-19.304,0-35.936,11.48-43.552,27.944c-1.456-1.48-3.096-2.768-4.768-4.008c0.192-2.64,0.32-5.296,0.32-7.936    c0-26.472-21.528-48-48-48s-48,21.528-48,48v4c0,13.312,9.36,24.44,21.832,27.264c-1.376,2.776-2.56,5.664-3.464,8.672    c-7.568-5-16.632-7.936-26.368-7.936c-26.472,0-48,21.528-48,48v4c0,15.44,12.56,28,28,28s28-12.56,28-28v-12h-16v12    c0,6.616-5.384,12-12,12c-6.616,0-12-5.384-12-12v-4c0-17.648,14.352-32,32-32s32,14.352,32,32    c0,26.992-11.728,52.136-32.12,69.624c-38.08-30.048-66.816-69.856-83.072-115.696l-34.064-96.104l-0.576-1.272    c-4.448-7.832-1.832-17.88,5.832-22.4c3.608-2.136,7.832-2.72,11.848-1.624c4.12,1.104,7.568,3.8,9.736,7.616l36.192,63.128    c5.912,10.32,17.024,16.728,29.424,16.728c18.096,0,32.824-14.728,32.824-32.824L223.991,56c0-8.824,7.176-16,16-16    c8.824,0,16,7.176,16,16v152h16V32c0-8.824,7.176-16,16-16c8.824,0,16,7.176,16,16v176h16V56c0-8.824,7.176-16,16-16    c8.824,0,16,7.176,16,16v40v128v16h16v-16V96c0-8.824,7.176-16,16-16c8.824,0,16,7.176,16,16V268.32z" data-original="#000000" class="active-path" data-old_color="#de5781" fill="#de5781"/>
	</g>
</g></g> </svg>
